<svg id="delete" xmlns="http://www.w3.org/2000/svg" width="9.977" height="12.216" viewBox="0 0 9.977 12.216">
  <path id="Path_145" data-name="Path 145" d="M9.946,2.73l-.27-.808a.752.752,0,0,0-.714-.515H6.695V.669A.67.67,0,0,0,6.026,0H3.95a.67.67,0,0,0-.669.669v.738H1.015A.752.752,0,0,0,.3,1.922l-.27.808a.605.605,0,0,0,.574.8H.887L1.507,11.2a1.11,1.11,0,0,0,1.1,1.015H7.495a1.11,1.11,0,0,0,1.1-1.015l.621-7.673h.156a.605.605,0,0,0,.574-.8ZM4,.715H5.979v.691H4ZM7.881,11.142a.39.39,0,0,1-.387.357H2.607a.39.39,0,0,1-.387-.357L1.6,3.527H8.5ZM.758,2.811l.221-.663a.037.037,0,0,1,.035-.026H8.962A.037.037,0,0,1,9,2.148l.221.663Zm0,0" transform="translate(0 0)" fill="#f96868"/>
  <path id="Path_146" data-name="Path 146" d="M268.635,172.743h.019a.358.358,0,0,0,.357-.339l.336-6.451a.358.358,0,0,0-.715-.037l-.336,6.451A.358.358,0,0,0,268.635,172.743Zm0,0" transform="translate(-261.895 -161.626)" fill="#f96868"/>
  <path id="Path_147" data-name="Path 147" d="M106.146,172.408a.358.358,0,0,0,.357.338h.02a.358.358,0,0,0,.338-.377l-.352-6.451a.358.358,0,0,0-.715.039Zm0,0" transform="translate(-103.269 -161.629)" fill="#f96868"/>
  <path id="Path_148" data-name="Path 148" d="M194.612,172.746a.358.358,0,0,0,.358-.358v-6.451a.358.358,0,1,0-.716,0v6.451A.358.358,0,0,0,194.612,172.746Zm0,0" transform="translate(-189.619 -161.628)" fill="#f96868"/>
</svg>
