<svg xmlns="http://www.w3.org/2000/svg" width="12.58" height="13.5" viewBox="0 0 12.58 13.5">
  <path id="Path_2912" data-name="Path 2912" d="M33.309,21.177q1.38,0,1.38-2.1t-1.38-2.113a1.118,1.118,0,0,0-.985.526,2.82,2.82,0,0,0-.372,1.588,2.8,2.8,0,0,0,.372,1.577A1.118,1.118,0,0,0,33.309,21.177Zm0,1.095a2.668,2.668,0,0,1-1.982-.8,3.317,3.317,0,0,1-.865-2.42,3.241,3.241,0,0,1,.865-2.4,2.9,2.9,0,0,1,3.974,0,3.265,3.265,0,0,1,.854,2.4,3.319,3.319,0,0,1-.854,2.42A2.659,2.659,0,0,1,33.309,22.272Zm6.952-6.81H41.7l-8.474,13.5H31.809ZM40.2,27.374a1.155,1.155,0,0,0,1.007-.526,2.852,2.852,0,0,0,.372-1.588,2.8,2.8,0,0,0-.372-1.577,1.155,1.155,0,0,0-1.007-.526q-1.369,0-1.369,2.1a2.82,2.82,0,0,0,.372,1.588A1.145,1.145,0,0,0,40.2,27.374Zm0,1.095a2.659,2.659,0,0,1-1.993-.8,3.319,3.319,0,0,1-.854-2.42,3.265,3.265,0,0,1,.854-2.4,2.9,2.9,0,0,1,3.974,0,3.241,3.241,0,0,1,.865,2.4,3.317,3.317,0,0,1-.865,2.42A2.668,2.668,0,0,1,40.2,28.469Z" transform="translate(-30.462 -15.462)" fill="#f0d800"/>
</svg>
