<svg id="Edit" xmlns="http://www.w3.org/2000/svg" width="11.625" height="12.972" viewBox="0 0 11.625 12.972">
  <g id="Group_200" data-name="Group 200">
    <g id="Group_199" data-name="Group 199">
      <path id="Path_125" data-name="Path 125" d="M30.291,11.958H28.6a1.015,1.015,0,0,1-1.013-1.013V2.027A1.015,1.015,0,0,1,28.6,1.013h6.23A1.015,1.015,0,0,1,35.84,2.027V5.143a.507.507,0,0,0,1.013,0V2.027A2.029,2.029,0,0,0,34.826,0H28.6A2.029,2.029,0,0,0,26.57,2.027v8.918A2.029,2.029,0,0,0,28.6,12.972h1.695a.507.507,0,0,0,0-1.013Z" transform="translate(-26.57)" fill="#06d79c"/>
      <path id="Path_126" data-name="Path 126" d="M249.143,272.469a1.522,1.522,0,0,0-2.149,0l-2.782,2.776a.507.507,0,0,0-.127.211l-.606,1.995a.507.507,0,0,0,.62.636l2.045-.567a.507.507,0,0,0,.223-.13l2.776-2.771A1.522,1.522,0,0,0,249.143,272.469Zm-3.4,4.109-1.029.285.3-.991L246.895,274l.717.717Zm2.681-2.676-.1.1-.717-.717.1-.1a.507.507,0,0,1,.717.716Z" transform="translate(-237.962 -265.132)" fill="#06d79c"/>
      <path id="Path_127" data-name="Path 127" d="M112.185,120h-5.219a.467.467,0,1,0,0,.93h5.219a.467.467,0,1,0,0-.93Z" transform="translate(-104.217 -117.854)" fill="#06d79c"/>
      <path id="Path_129" data-name="Path 129" d="M112.185,120h-5.219a.467.467,0,1,0,0,.93h5.219a.467.467,0,1,0,0-.93Z" transform="translate(-104.217 -116.065)" fill="#06d79c"/>
      <path id="Path_130" data-name="Path 130" d="M112.185,120h-5.219a.467.467,0,1,0,0,.93h5.219a.467.467,0,1,0,0-.93Z" transform="translate(-104.217 -114.276)" fill="#06d79c"/>
      <path id="Path_131" data-name="Path 131" d="M110.949,120h-4.092a.47.47,0,0,0,0,.93h4.092a.47.47,0,0,0,0-.93Z" transform="translate(-104.217 -112.487)" fill="#06d79c"/>
    </g>
  </g>
</svg>
