<svg xmlns="http://www.w3.org/2000/svg" width="14.476" height="13" viewBox="0 0 14.476 13">
  <g id="exchange" transform="translate(0 -25.723)">
    <path id="Path_2922" data-name="Path 2922" d="M8.918,31.11V28.121a.459.459,0,0,0-.459-.459H4.443v-1.48a.459.459,0,0,0-.779-.329L.139,29.287a.459.459,0,0,0,0,.658l3.525,3.433a.459.459,0,0,0,.779-.329v-1.48H8.459A.459.459,0,0,0,8.918,31.11Z" fill="#d7c206"/>
    <path id="Path_2923" data-name="Path 2923" d="M202.551,211.166l-3.525-3.433a.459.459,0,0,0-.779.329v1.48h-4.017a.459.459,0,0,0-.459.459v2.988a.459.459,0,0,0,.459.459h4.017v1.48a.46.46,0,0,0,.779.329l3.525-3.433A.459.459,0,0,0,202.551,211.166Z" transform="translate(-188.214 -176.663)" fill="#d7c206"/>
  </g>
</svg>
