<svg xmlns="http://www.w3.org/2000/svg" width="9.612" height="13.5" viewBox="0 0 9.612 13.5">
  <path id="hands-and-gestures" d="M2.745,13.5h2.9A2.22,2.22,0,0,0,7.6,12.268l2.51-4.821-.142-.116-.008-.007a1.078,1.078,0,0,0-.81-.291,1.1,1.1,0,0,0-.778.411l-.724.881A.207.207,0,0,1,7.283,8.2l0-6.064a.721.721,0,0,0-.686-.749.718.718,0,0,0-.686.721c0,.612,0,1.279,0,1.914,0,1.435,0,2.674,0,2.794a.205.205,0,0,1-.207.206h0a.206.206,0,0,1-.207-.2c0-.121,0-1.359,0-2.795,0-.619,0-1.27,0-1.87,0,0,0-.009,0-.014s0-.023,0-.035V.747A.718.718,0,0,0,4.806,0H4.785a.721.721,0,0,0-.692.744V6.813a.207.207,0,0,1-.414,0V1.529A.716.716,0,0,0,3,.779a.716.716,0,0,0-.682.75V6.813a.207.207,0,0,1-.414,0V3.7a.715.715,0,0,0-.693-.738h-.02A.714.714,0,0,0,.5,3.7c0,1.7,0,4.7,0,7.389A2.334,2.334,0,0,0,2.745,13.5Zm0,0" transform="translate(-0.5 0)" fill="#f96868"/>
</svg>
