<svg xmlns="http://www.w3.org/2000/svg" width="17.182" height="13.5" viewBox="0 0 17.182 13.5">
  <g id="msg" transform="translate(0 -54.82)">
    <g id="Group_4138" data-name="Group 4138" transform="translate(0 54.82)">
      <path id="Path_71039" data-name="Path 71039" d="M1.649,58.981q.326.23,1.966,1.366T6.127,62.1q.1.067.407.293t.518.364q.206.139.5.312a2.893,2.893,0,0,0,.551.259,1.519,1.519,0,0,0,.479.086H8.6a1.521,1.521,0,0,0,.479-.086,2.9,2.9,0,0,0,.551-.259q.292-.173.5-.312t.518-.364q.312-.226.408-.293l4.487-3.116a4.555,4.555,0,0,0,1.17-1.179,2.532,2.532,0,0,0,.47-1.448,1.547,1.547,0,0,0-1.534-1.534H1.534a1.369,1.369,0,0,0-1.136.5A1.935,1.935,0,0,0,0,56.565a2.24,2.24,0,0,0,.527,1.309A4.759,4.759,0,0,0,1.649,58.981Z" transform="translate(0 -54.82)" fill="#d7c206"/>
      <path id="Path_71040" data-name="Path 71040" d="M16.223,185.271q-3.145,2.128-4.775,3.308-.547.4-.887.628a5.475,5.475,0,0,1-.906.46A2.76,2.76,0,0,1,8.6,189.9H8.582a2.76,2.76,0,0,1-1.055-.235,5.477,5.477,0,0,1-.906-.46q-.34-.225-.887-.628-1.295-.949-4.765-3.308A5.078,5.078,0,0,1,0,184.437v7.613a1.477,1.477,0,0,0,.451,1.084,1.477,1.477,0,0,0,1.084.451H15.648a1.539,1.539,0,0,0,1.534-1.534v-7.613A5.287,5.287,0,0,1,16.223,185.271Z" transform="translate(0 -180.084)" fill="#d7c206"/>
    </g>
  </g>
</svg>
