<svg xmlns="http://www.w3.org/2000/svg" width="32" height="32" viewBox="0 0 32 32">
  <g id="notifications" transform="translate(0)">
    <rect id="Rectangle_99" data-name="Rectangle 99" width="32" height="32" transform="translate(0)" fill="none"/>
    <path id="notification" d="M78.232,25.466a4.972,4.972,0,0,1-1.511-2.057c-1.3-2.755-1.575-6.636-1.575-9.407,0-.012,0-.024,0-.036A9.08,9.08,0,0,0,69.8,5.731V3.565A3.566,3.566,0,0,0,66.242,0h-.295a3.566,3.566,0,0,0-3.559,3.565V5.731A9.08,9.08,0,0,0,57.043,14c0,2.771-.273,6.652-1.575,9.407a4.972,4.972,0,0,1-1.511,2.057.911.911,0,0,0-.5,1.037.954.954,0,0,0,.94.733h6.872a4.827,4.827,0,0,0,9.653,0h6.872a.954.954,0,0,0,.94-.733A.911.911,0,0,0,78.232,25.466ZM64.263,3.565a1.687,1.687,0,0,1,1.684-1.687h.295a1.687,1.687,0,0,1,1.684,1.687V5.122a9.08,9.08,0,0,0-3.663,0V3.565Zm1.831,26.558a2.958,2.958,0,0,1-2.951-2.887h5.9A2.958,2.958,0,0,1,66.095,30.122Zm3.775-4.765H56.533a9.829,9.829,0,0,0,.491-.862c1.257-2.478,1.894-6.008,1.894-10.493a7.176,7.176,0,1,1,14.353,0q0,.017,0,.035c0,4.467.641,7.985,1.894,10.456a9.834,9.834,0,0,0,.491.862Z" transform="translate(-50.134 0)" fill="#4171bb"/>
  </g>
</svg>
