<svg xmlns="http://www.w3.org/2000/svg" width="40.001" height="40" viewBox="0 0 40.001 40">
  <g id="renew" transform="translate(-18075 -5658)">
    <path id="Path_2914" data-name="Path 2914" d="M2.209,16.168a1.171,1.171,0,0,0,.9-.006l3.505-1.48a1.172,1.172,0,0,0-.912-2.16l-.858.362a16.8,16.8,0,0,1,31.64,2.554,1.172,1.172,0,1,0,2.269-.587,19.139,19.139,0,0,0-36.1-2.794l-.4-.938a1.172,1.172,0,1,0-2.159.911L1.57,15.538a1.171,1.171,0,0,0,.638.63Zm0,0" transform="translate(18075.002 5657.499)" fill="#f0d800"/>
    <path id="Path_2915" data-name="Path 2915" d="M54.2,312.065l-1.479-3.506a1.172,1.172,0,0,0-1.535-.624l-3.505,1.48a1.172,1.172,0,0,0,.911,2.16l.981-.414A16.8,16.8,0,0,1,17.814,308.9a1.172,1.172,0,1,0-2.269.587A19.139,19.139,0,0,0,51.7,312.158l.345.818a1.172,1.172,0,0,0,2.159-.911Zm0,0" transform="translate(18060.705 5374.166)" fill="#f0d800"/>
    <path id="Path_2917" data-name="Path 2917" d="M34.5,23.571q1.957,0,1.957-2.983,0-3-1.957-3a1.586,1.586,0,0,0-1.4.746,4,4,0,0,0-.528,2.253,3.967,3.967,0,0,0,.528,2.237A1.586,1.586,0,0,0,34.5,23.571Zm0,1.554a3.786,3.786,0,0,1-2.812-1.134,4.707,4.707,0,0,1-1.227-3.433,4.6,4.6,0,0,1,1.227-3.4,4.113,4.113,0,0,1,5.639,0,4.632,4.632,0,0,1,1.212,3.4,4.709,4.709,0,0,1-1.212,3.433A3.773,3.773,0,0,1,34.5,25.125Zm9.865-9.663H46.4L34.377,34.617h-2Zm-.093,16.9a1.638,1.638,0,0,0,1.429-.746,4.047,4.047,0,0,0,.528-2.253,3.967,3.967,0,0,0-.528-2.237,1.638,1.638,0,0,0-1.429-.746q-1.942,0-1.942,2.983a4,4,0,0,0,.528,2.253A1.624,1.624,0,0,0,44.273,32.365Zm0,1.554a3.773,3.773,0,0,1-2.827-1.134,4.709,4.709,0,0,1-1.212-3.433,4.632,4.632,0,0,1,1.212-3.4,4.113,4.113,0,0,1,5.639,0,4.6,4.6,0,0,1,1.227,3.4,4.707,4.707,0,0,1-1.227,3.433A3.786,3.786,0,0,1,44.273,33.918Z" transform="translate(18055.631 5652.928)" fill="#f0d800"/>
  </g>
</svg>
