<svg xmlns="http://www.w3.org/2000/svg" xmlns:xlink="http://www.w3.org/1999/xlink" width="112.796" height="80" viewBox="0 0 112.796 80">
  <defs>
    <linearGradient id="linear-gradient" y1="0.5" x2="1" y2="0.5" gradientUnits="objectBoundingBox">
      <stop offset="0.232" stop-color="#0072bb"/>
      <stop offset="0.649" stop-color="#747a7c"/>
      <stop offset="1" stop-color="#787b79"/>
    </linearGradient>
  </defs>
  <g id="Logo" transform="translate(-43.419 -105.275)">
    <path id="Path_2797" data-name="Path 2797" d="M109.518,105.386l-41.668-.111-.041,17.658,23.6.074-.044,34.554c.088,7.789-4.479,10.212-11.02,7.288-3.219-1.269-6.579-3.721-10.2-8.31l-1.8,2.8.56,1,2.21,2.18a37.62,37.62,0,0,0,6.438,4.906c7.116,3.993,16.486,1.665,16.928-7.794l.074-39.941H71.08l.029-11.109,35.256-.074Z" transform="translate(-17.713 0)" fill="#0060ad"/>
    <path id="Path_2798" data-name="Path 2798" d="M156.215,117.478c-17.105-16.044-39.883-16.5-57.415,0-4.354,5.154-8.53,11.359-9.584,19.573-1.952,13.179.686,24.317-1.952,31.477-1.518,6.188-6.114,10.7-12.552,12.685a25.026,25.026,0,0,1-12.508.309c-5.864-1.429-11.818-5.3-17.105-12.243l-1.68,2.7.575.995a29.254,29.254,0,0,0,32.781,10.969,19.65,19.65,0,0,0,12.545-11.182,36.872,36.872,0,0,0,1.7-5.031,39.732,39.732,0,0,0,.656-5.43c.007-10.174-.211-17.917.432-23.233,1.463-10.455,6.166-16.6,11.566-21.819a30.356,30.356,0,0,1,16.25-7.956c12.839-2.358,24.361,1.594,34.785,10.8Z" transform="translate(0 0)" fill="url(#linear-gradient)"/>
    <path id="Path_2799" data-name="Path 2799" d="M287.247,184.765l24.866,0,.063,26.855c-16.943,13.525-38.777,14.173-53.643,2.151l.751-3.551a37.167,37.167,0,0,0,20.022,8.722,40.5,40.5,0,0,0,29.6-8.987l.069-20.8a1.251,1.251,0,0,0-1.247-1.255l-18.476-.055.015,5.7,9.473-.007.048,9.2c-6.869,4.039-13.479,5.561-19.8,4.247a23.287,23.287,0,0,1-15.3-12.022c-3.742-7.391-3.58-16.752-1.2-22.483,2.715-6.7,7.072-11.234,12.856-13.737a23.621,23.621,0,0,1,16.083-.348,27.128,27.128,0,0,1,13.061,8.713l-1.9,2.459c-4.8-4.858-9.981-7.995-15.648-8.932-6.593-.5-9.952-.162-16.055,5.105-4.218,3.2-6.307,8.749-6.932,15.9-.388,4.424,1.053,8.953,3.7,13.553a19.539,19.539,0,0,0,9.486,7.812,18.97,18.97,0,0,0,10.543.772,29.326,29.326,0,0,0,7.9-3l.029-4.243-8.41.026a1.051,1.051,0,0,1-1.055-1.053l.012-9.67A1.077,1.077,0,0,1,287.247,184.765Z" transform="translate(-156.222 -37.673)" fill="#787b79"/>
  </g>
</svg>
