<svg id="auction" xmlns="http://www.w3.org/2000/svg" width="27.813" height="29.605" viewBox="0 0 27.813 29.605">
  <path id="Path_2820" data-name="Path 2820" d="M44.112,15.735l7.08,5.011a.867.867,0,0,0,1.209-.207l2-2.832A.867.867,0,0,0,54.2,16.5l-.391-.276a17,17,0,0,0,5-7.088l.4.285a.867.867,0,0,0,1.209-.207l2-2.832a.868.868,0,0,0-.207-1.209L55.135.16a.867.867,0,0,0-1.209.207l-2,2.832a.868.868,0,0,0,.207,1.209l.4.285a17.01,17.01,0,0,0-5.022,7.071l-.391-.277a.867.867,0,0,0-1.209.207l-2,2.832a.868.868,0,0,0,.207,1.209Z" transform="translate(-42.112 0)" fill="#fff"/>
  <path id="Path_2821" data-name="Path 2821" d="M277.359,210.264l-9.285-6.572a19.986,19.986,0,0,1-3,4.255l9.276,6.565a2.6,2.6,0,0,0,3.007-4.248Z" transform="translate(-250.645 -191.914)" fill="#fff"/>
  <path id="Path_2822" data-name="Path 2822" d="M33.709,393.736h-.867a.868.868,0,0,1-.867-.867.867.867,0,0,0-.867-.867H18.964a.867.867,0,0,0-.867.867.868.868,0,0,1-.867.867h-.867a.867.867,0,0,0-.867.867v3.469a.867.867,0,0,0,.867.867H33.709a.867.867,0,0,0,.867-.867V394.6A.867.867,0,0,0,33.709,393.736Z" transform="translate(-15.495 -369.334)" fill="#fff"/>
</svg>
