<svg xmlns="http://www.w3.org/2000/svg" width="30" height="26.471" viewBox="0 0 30 26.471">
  <path id="car" d="M27.739,9.768,25.635,2.7A3.732,3.732,0,0,0,22.042,0H7.958A3.732,3.732,0,0,0,4.365,2.7l-2.1,7.072A3.785,3.785,0,0,0,0,13.235V20.8a1.883,1.883,0,0,0,1.875,1.891h0V24.58A1.883,1.883,0,0,0,3.75,26.471H5.625A1.883,1.883,0,0,0,7.5,24.58V22.689h15V24.58a1.883,1.883,0,0,0,1.875,1.891H26.25a1.883,1.883,0,0,0,1.875-1.891V22.689h0A1.883,1.883,0,0,0,30,20.8V13.235a3.785,3.785,0,0,0-2.261-3.467ZM7.958,3.782H22.042L23.73,9.454H6.27L7.958,3.782ZM7.5,17.962a1.891,1.891,0,1,1,1.875-1.891A1.883,1.883,0,0,1,7.5,17.962Zm15,0a1.891,1.891,0,1,1,1.875-1.891A1.883,1.883,0,0,1,22.5,17.962Z" fill="#fff"/>
</svg>
