<svg xmlns="http://www.w3.org/2000/svg" width="30" height="30" viewBox="0 0 30 30">
  <path id="maintenance_" data-name="maintenance " d="M29.618,6.217a.939.939,0,0,0-1.558-.38L24.1,9.8l-3.031-.867L20.2,5.9l3.96-3.96A.939.939,0,0,0,23.782.38,8.442,8.442,0,0,0,21.249,0,8.76,8.76,0,0,0,12.5,8.75a8.57,8.57,0,0,0,.51,2.94L1.1,23.6A3.75,3.75,0,0,0,3.749,30,3.72,3.72,0,0,0,6.4,28.9l11.91-11.91a8.571,8.571,0,0,0,2.94.51A8.76,8.76,0,0,0,30,8.75a8.4,8.4,0,0,0-.381-2.532Zm0,0" transform="translate(0.001 0)" fill="#fff"/>
</svg>
