<svg xmlns="http://www.w3.org/2000/svg" width="20" height="20" viewBox="0 0 20 20">
  <g id="i_accidents" transform="translate(9106 1414)">
    <rect id="Rectangle_2587" data-name="Rectangle 2587" width="20" height="20" transform="translate(-9106 -1414)" fill="none"/>
    <g id="car-on-fire" transform="translate(-9106 -1438.933)">
      <path id="Path_71036" data-name="Path 71036" d="M40.216,87.363l-.229-.322a9.724,9.724,0,0,1-.7-1.179l-1.13-2.349a1.361,1.361,0,0,0-1.139-.716H29.208A1.577,1.577,0,0,0,28,83.454l-2.079,3.222a1.847,1.847,0,0,1-.97.682l-1.822.422a1.081,1.081,0,0,0-.8,1v3.177a.851.851,0,0,0,.85.85h1.358a2.377,2.377,0,0,0,4.565,0h4.408a2.377,2.377,0,0,0,4.565,0H39.8a.851.851,0,0,0,.85-.85V88.72A2.7,2.7,0,0,0,40.216,87.363ZM26.823,93.328A1.181,1.181,0,1,1,28,92.147,1.181,1.181,0,0,1,26.823,93.328Zm6.738-5.97H27.6c-.311,0-.432-.217-.27-.482l1.507-2.468a1.121,1.121,0,0,1,.859-.482h3.862v3.432Zm2.235,5.97a1.181,1.181,0,1,1,1.181-1.181A1.181,1.181,0,0,1,35.8,93.328Zm1.722-5.97h-2.6V83.927h1.474a.833.833,0,0,1,.741.537l.773,2.358A.386.386,0,0,1,37.519,87.359Z" transform="translate(-20.649 -51.653)" fill="#1272ba"/>
      <path id="Path_71037" data-name="Path 71037" d="M2.319,35.488a2.19,2.19,0,0,1-.738-2.045A15.223,15.223,0,0,1,2,30.758a10.22,10.22,0,0,0,1.358,1.523,2.489,2.489,0,0,1,1.175,2.536.1.1,0,0,0,.158.094A2.7,2.7,0,0,0,5.45,32.2,4.656,4.656,0,0,0,4.718,30.6,3.394,3.394,0,0,0,3.43,29.364a.1.1,0,0,0-.129.12c.346.947.055,1.3-.315.809a3.522,3.522,0,0,1-.446-1.027,3.8,3.8,0,0,0-1.375-2,2.613,2.613,0,0,0-.588-.325.1.1,0,0,0-.124.123,6.124,6.124,0,0,1-.181,4.207A3.332,3.332,0,0,0,.68,34.724a2.824,2.824,0,0,0,1.559.93A.1.1,0,0,0,2.319,35.488Z" transform="translate(0)" fill="#1272ba"/>
    </g>
  </g>
</svg>
