<svg xmlns="http://www.w3.org/2000/svg" width="20" height="20" viewBox="0 0 20 20">
  <g id="i_authorization" transform="translate(-2628 -2149)">
    <rect id="Rectangle_202" data-name="Rectangle 202" width="20" height="20" transform="translate(2628 2149)" fill="none"/>
    <path id="shapes" d="M19.763,6.786a1.354,1.354,0,0,0-.96.4L14.457,6.3,12.19,2.267a1.365,1.365,0,1,0-2.076,0L7.846,6.3l-4.377.887a1.349,1.349,0,0,0-.8-.264,1.376,1.376,0,0,0,0,2.752,1.351,1.351,0,0,0,.4-.06l2.738,2.99-.537,4.664A1.375,1.375,0,1,0,6.9,18.624a1.405,1.405,0,0,0-.009-.156l4.265-1.96,4.266,1.96a1.39,1.39,0,0,0-.009.156,1.365,1.365,0,1,0,1.627-1.35L16.5,12.609l2.867-3.131a1.349,1.349,0,0,0,.4.06,1.376,1.376,0,0,0,0-2.752Z" transform="translate(2626.696 2149)" fill="#1272ba"/>
  </g>
</svg>
