<svg xmlns="http://www.w3.org/2000/svg" width="20" height="20" viewBox="0 0 20 20">
  <g id="i_auction" transform="translate(-2639 -2136)">
    <rect id="Rectangle_199" data-name="Rectangle 199" width="20" height="20" transform="translate(2639 2136)" fill="none"/>
    <g id="auction" transform="translate(2624.505 2136)">
      <path id="Path_2820" data-name="Path 2820" d="M43.993,10.63l4.783,3.385a.586.586,0,0,0,.817-.14l1.354-1.913a.586.586,0,0,0-.14-.817l-.264-.187A11.484,11.484,0,0,0,53.92,6.17l.272.192a.586.586,0,0,0,.817-.14l1.354-1.913a.586.586,0,0,0-.14-.817L51.44.108a.586.586,0,0,0-.817.14L49.269,2.161a.586.586,0,0,0,.14.817l.272.193a11.491,11.491,0,0,0-3.393,4.777l-.264-.187a.586.586,0,0,0-.817.14L43.853,9.813a.586.586,0,0,0,.14.817Z" transform="translate(-27.147 0)" fill="#1272ba"/>
      <path id="Path_2821" data-name="Path 2821" d="M273.374,208.132l-6.273-4.44a13.5,13.5,0,0,1-2.025,2.874L271.343,211a1.758,1.758,0,0,0,2.031-2.87Z" transform="translate(-239.833 -195.735)" fill="#1272ba"/>
      <path id="Path_2822" data-name="Path 2822" d="M27.8,393.173h-.586a.587.587,0,0,1-.586-.586.586.586,0,0,0-.586-.586h-8.2a.586.586,0,0,0-.586.586.587.587,0,0,1-.586.586h-.586a.586.586,0,0,0-.586.586V396.1a.586.586,0,0,0,.586.586H27.8a.586.586,0,0,0,.586-.586v-2.344A.586.586,0,0,0,27.8,393.173Z" transform="translate(0 -376.688)" fill="#1272ba"/>
    </g>
  </g>
</svg>
