<svg xmlns="http://www.w3.org/2000/svg" width="20" height="20" viewBox="0 0 20 20">
  <path id="i_financial_system" d="M17.069,2.931a10,10,0,1,0,0,14.139A9.992,9.992,0,0,0,17.069,2.931ZM9.5,8.906l1.619.67a2.806,2.806,0,0,1,1,4.49,2.883,2.883,0,0,1-1.306.805v.551a.821.821,0,1,1-1.642,0v-.55a2.906,2.906,0,0,1-2.086-2.787.821.821,0,0,1,1.642,0,1.267,1.267,0,0,0,2.154.9,1.16,1.16,0,0,0-.394-1.89l-1.619-.67a2.806,2.806,0,0,1-1-4.493,2.9,2.9,0,0,1,1.3-.805V4.578a.821.821,0,1,1,1.642,0v.549a2.911,2.911,0,0,1,2.086,2.788.821.821,0,1,1-1.642,0,1.266,1.266,0,0,0-2.189-.863A1.162,1.162,0,0,0,9.5,8.906Z" transform="translate(0)" fill="#1272ba"/>
</svg>
