<svg xmlns="http://www.w3.org/2000/svg" width="20" height="20" viewBox="0 0 20 20">
  <g id="i_map" transform="translate(0 0)">
    <rect id="Rectangle_103" data-name="Rectangle 103" width="20" height="20" transform="translate(0 0)" fill="none"/>
    <g id="global_2_" data-name="global (2)" transform="translate(0 -0.316)">
      <path id="Path_2804" data-name="Path 2804" d="M231.816,348.522c1.529-.217,2.87-1.814,3.714-4.171a18.155,18.155,0,0,0-3.714-.437Zm0,0" transform="translate(-221.459 -328.206)" fill="#1272ba"/>
      <path id="Path_2805" data-name="Path 2805" d="M279.809,361.234c.09-.026.18-.053.27-.082s.15-.05.224-.076.176-.062.263-.095.148-.058.222-.088l.254-.107c.073-.032.146-.066.219-.1s.165-.079.246-.12l.215-.112q.12-.064.239-.132c.072-.04.14-.081.21-.123l.231-.143c.069-.044.137-.088.2-.134s.15-.1.224-.157l.2-.143c.072-.055.145-.112.217-.169s.127-.1.19-.153.14-.121.209-.182.122-.107.181-.163.135-.13.2-.2.116-.113.172-.171l.031-.034a12.013,12.013,0,0,0-2.449-.942,8.869,8.869,0,0,1-2.284,3.709l.087-.021C279.66,361.28,279.735,361.256,279.809,361.234Zm0,0" transform="translate(-267.008 -341.293)" fill="#1272ba"/>
      <path id="Path_2806" data-name="Path 2806" d="M340.566,231.684H336.28a18.537,18.537,0,0,1-.722,4.945,12.43,12.43,0,0,1,2.713,1.079A9.986,9.986,0,0,0,340.566,231.684Zm0,0" transform="translate(-320.566 -221)" fill="#1272ba"/>
      <path id="Path_2807" data-name="Path 2807" d="M231.816,113.711h4.642a17.882,17.882,0,0,0-.7-4.769,18.827,18.827,0,0,1-3.938.47Zm0,0" transform="translate(-221.459 -103.759)" fill="#1272ba"/>
      <path id="Path_2808" data-name="Path 2808" d="M231.816.316V4.925a18.166,18.166,0,0,0,3.714-.437c-.844-2.357-2.184-3.954-3.714-4.171Zm0,0" transform="translate(-221.459)" fill="#1272ba"/>
      <path id="Path_2809" data-name="Path 2809" d="M231.816,235.983a18.839,18.839,0,0,1,3.938.47,17.883,17.883,0,0,0,.7-4.769h-4.642Zm0,0" transform="translate(-221.458 -221.003)" fill="#1272ba"/>
      <path id="Path_2810" data-name="Path 2810" d="M338.271,80.844a12.432,12.432,0,0,1-2.713,1.079,18.537,18.537,0,0,1,.722,4.945h4.286a9.989,9.989,0,0,0-2.295-6.025Zm0,0" transform="translate(-320.566 -76.919)" fill="#1272ba"/>
      <path id="Path_2811" data-name="Path 2811" d="M284.194,9.563l-.031-.033c-.057-.058-.115-.114-.173-.171s-.132-.132-.2-.2-.12-.107-.181-.162-.139-.123-.21-.183-.125-.1-.188-.152-.145-.116-.219-.171-.13-.1-.2-.143-.15-.107-.226-.158-.135-.089-.2-.132-.154-.1-.233-.146-.139-.082-.208-.122-.16-.09-.241-.133-.143-.075-.214-.11-.165-.082-.25-.121-.144-.067-.218-.1-.17-.071-.256-.107-.147-.06-.221-.088-.175-.064-.263-.095-.149-.052-.224-.077-.179-.055-.271-.082c-.074-.022-.149-.044-.224-.064l-.087-.021a8.87,8.87,0,0,1,2.284,3.709,12,12,0,0,0,2.452-.943Zm0,0" transform="translate(-266.971 -6.191)" fill="#1272ba"/>
      <path id="Path_2812" data-name="Path 2812" d="M0,86.868H4.286a18.544,18.544,0,0,1,.722-4.945,12.416,12.416,0,0,1-2.713-1.079A9.987,9.987,0,0,0,0,86.868Zm0,0" transform="translate(0 -76.919)" fill="#1272ba"/>
      <path id="Path_2813" data-name="Path 2813" d="M136.409,348.522v-4.608a18.168,18.168,0,0,0-3.714.437c.844,2.357,2.184,3.954,3.714,4.171Zm0,0" transform="translate(-126.766 -328.206)" fill="#1272ba"/>
      <path id="Path_2814" data-name="Path 2814" d="M116.563,231.684h-4.642a17.875,17.875,0,0,0,.7,4.769,18.814,18.814,0,0,1,3.938-.47Zm0,0" transform="translate(-106.92 -221.003)" fill="#1272ba"/>
      <path id="Path_2815" data-name="Path 2815" d="M136.409.316c-1.529.217-2.87,1.814-3.714,4.171a18.142,18.142,0,0,0,3.714.437Zm0,0" transform="translate(-126.766)" fill="#1272ba"/>
      <path id="Path_2816" data-name="Path 2816" d="M116.563,109.411a18.827,18.827,0,0,1-3.938-.47,17.874,17.874,0,0,0-.7,4.769h4.642Zm0,0" transform="translate(-106.921 -103.759)" fill="#1272ba"/>
      <path id="Path_2817" data-name="Path 2817" d="M66.924,6.789l-.087.021c-.076.02-.15.043-.226.065s-.179.053-.269.081-.151.051-.225.077-.175.062-.262.094-.148.058-.222.089l-.254.107c-.074.032-.146.066-.219.1s-.165.079-.246.12l-.215.112q-.12.064-.238.132t-.211.123c-.078.047-.154.1-.231.143s-.137.088-.2.134-.15.1-.224.157l-.2.143c-.073.055-.143.112-.217.169s-.128.1-.19.154-.139.12-.208.181-.123.107-.182.164-.134.129-.2.194-.116.113-.173.172l-.031.034a12,12,0,0,0,2.449.943,8.867,8.867,0,0,1,2.283-3.707Zm0,0" transform="translate(-59.412 -6.183)" fill="#1272ba"/>
      <path id="Path_2818" data-name="Path 2818" d="M62.431,358.709c.066.065.133.132.2.2s.12.107.181.162.139.123.21.183.125.1.188.152.143.116.219.171.13.1.2.143.15.107.226.159.135.089.2.132.154.1.233.145.139.082.208.122.16.09.241.133.143.075.215.11.165.081.25.121.144.067.218.1.17.071.256.107.147.06.221.088.175.064.263.095.149.052.224.076.179.056.271.082c.074.022.149.044.224.064l.087.021a8.872,8.872,0,0,1-2.284-3.71,12,12,0,0,0-2.449.943l.031.033c.054.058.111.114.17.171Zm0,0" transform="translate(-59.45 -341.244)" fill="#1272ba"/>
      <path id="Path_2819" data-name="Path 2819" d="M2.295,237.707a12.433,12.433,0,0,1,2.713-1.079,18.544,18.544,0,0,1-.722-4.945H0A9.988,9.988,0,0,0,2.295,237.707Zm0,0" transform="translate(0 -220.999)" fill="#1272ba"/>
    </g>
  </g>
</svg>
