<svg xmlns="http://www.w3.org/2000/svg" width="20" height="20" viewBox="0 0 20 20">
  <g id="i_maintenance" transform="translate(-2672 -2149)">
    <rect id="Rectangle_200" data-name="Rectangle 200" width="20" height="20" transform="translate(2672 2149)" fill="none"/>
    <path id="wrench" d="M19.745,4.145a.626.626,0,0,0-1.038-.253L16.067,6.53l-2.021-.578-.578-2.021,2.64-2.64A.626.626,0,0,0,15.854.253,5.628,5.628,0,0,0,14.166,0,5.84,5.84,0,0,0,8.333,5.833a5.714,5.714,0,0,0,.34,1.96l-7.94,7.94A2.5,2.5,0,0,0,2.5,20a2.48,2.48,0,0,0,1.767-.733l7.94-7.94a5.714,5.714,0,0,0,1.96.34A5.84,5.84,0,0,0,20,5.833a5.6,5.6,0,0,0-.254-1.688Zm0,0" transform="translate(2672.001 2149)" fill="#1272ba"/>
  </g>
</svg>
