<svg xmlns="http://www.w3.org/2000/svg" width="20" height="20" viewBox="0 0 20 20">
  <g id="i_packages" transform="translate(-32 -15)">
    <g id="Group_3804" data-name="Group 3804" transform="translate(-2551 -2134)">
      <rect id="Rectangle_201" data-name="Rectangle 201" width="20" height="20" transform="translate(2583 2149)" fill="none"/>
    </g>
    <g id="list" transform="translate(32 15)">
      <g id="Group_4130" data-name="Group 4130">
        <path id="Path_71038" data-name="Path 71038" d="M17.857,0H2.143A2.143,2.143,0,0,0,0,2.143V17.857A2.143,2.143,0,0,0,2.143,20H17.857A2.143,2.143,0,0,0,20,17.857V2.143A2.143,2.143,0,0,0,17.857,0ZM6.429,15.714H4.286a.714.714,0,1,1,0-1.429H6.429a.714.714,0,1,1,0,1.429Zm0-5H4.286a.714.714,0,1,1,0-1.429H6.429a.714.714,0,1,1,0,1.429Zm0-5H4.286a.714.714,0,1,1,0-1.429H6.429a.714.714,0,1,1,0,1.429Zm9.286,10H9.286a.714.714,0,1,1,0-1.429h6.429a.714.714,0,1,1,0,1.429Zm0-5H9.286a.714.714,0,1,1,0-1.429h6.429a.714.714,0,1,1,0,1.429Zm0-5H9.286a.714.714,0,1,1,0-1.429h6.429a.714.714,0,1,1,0,1.429Z" fill="#1272ba"/>
      </g>
    </g>
  </g>
</svg>
