<svg xmlns="http://www.w3.org/2000/svg" width="20" height="20" viewBox="0 0 20 20">
  <g id="i_services" transform="translate(-2583 -2149)">
    <rect id="Rectangle_201" data-name="Rectangle 201" width="20" height="20" transform="translate(2583 2149)" fill="none"/>
    <path id="tool" d="M19.939,8.889A.651.651,0,0,0,19.3,8.4a2.208,2.208,0,0,1-1.511-3.843.556.556,0,0,0,.061-.754,9.9,9.9,0,0,0-1.584-1.6.557.557,0,0,0-.76.061,2.3,2.3,0,0,1-2.494.56A2.221,2.221,0,0,1,11.656.65a.555.555,0,0,0-.491-.584A9.979,9.979,0,0,0,8.915.06a.557.557,0,0,0-.5.572A2.225,2.225,0,0,1,7.051,2.766,2.311,2.311,0,0,1,4.576,2.2a.557.557,0,0,0-.755-.063A9.941,9.941,0,0,0,2.2,3.738a.556.556,0,0,0,.06.76,2.216,2.216,0,0,1,.559,2.5A2.311,2.311,0,0,1,.646,8.345a.544.544,0,0,0-.578.491,10.024,10.024,0,0,0,0,2.274A.662.662,0,0,0,.72,11.6a2.194,2.194,0,0,1,2.058,1.37,2.225,2.225,0,0,1-.559,2.473.555.555,0,0,0-.061.753,9.935,9.935,0,0,0,1.582,1.6.556.556,0,0,0,.761-.06,2.3,2.3,0,0,1,2.493-.561,2.218,2.218,0,0,1,1.353,2.17.555.555,0,0,0,.491.584,9.957,9.957,0,0,0,2.25.006.557.557,0,0,0,.495-.573,2.223,2.223,0,0,1,1.368-2.132,2.308,2.308,0,0,1,2.477.563.558.558,0,0,0,.755.063,9.954,9.954,0,0,0,1.618-1.6.555.555,0,0,0-.06-.76,2.216,2.216,0,0,1-.56-2.494,2.238,2.238,0,0,1,2.046-1.356l.124,0a.557.557,0,0,0,.585-.491A9.98,9.98,0,0,0,19.939,8.889ZM10,15.764a5.765,5.765,0,1,1,4.95-2.809l-2.524-2.524A3.536,3.536,0,0,0,8.24,5.641a.4.4,0,0,0-.277.279.391.391,0,0,0,.111.382S9.32,7.558,9.737,7.975a.259.259,0,0,1,.037.185l0,.027a7.97,7.97,0,0,1-.19,1.22l-.027.026-.028.028a7.856,7.856,0,0,1-1.239.192v0l-.021.005h-.02a.266.266,0,0,1-.192-.081c-.434-.434-1.631-1.623-1.631-1.623a.407.407,0,0,0-.291-.13.4.4,0,0,0-.373.3,3.537,3.537,0,0,0,4.792,4.18L13.1,14.857A5.736,5.736,0,0,1,10,15.764Z" transform="translate(2582.999 2149.001)" fill="#1272ba"/>
  </g>
</svg>
