<svg xmlns="http://www.w3.org/2000/svg" width="20" height="20" viewBox="0 0 20 20">
  <g id="i_vehicles" transform="translate(-2587 -2149)">
    <rect id="Rectangle_198" data-name="Rectangle 198" width="20" height="20" transform="translate(2587 2149)" fill="none"/>
    <path id="car" d="M18.493,6.458l-1.4-4.676A2.485,2.485,0,0,0,14.695,0H5.305a2.485,2.485,0,0,0-2.4,1.782l-1.4,4.676A2.5,2.5,0,0,0,0,8.75v5A1.25,1.25,0,0,0,1.25,15h0v1.25A1.25,1.25,0,0,0,2.5,17.5H3.75A1.25,1.25,0,0,0,5,16.25V15H15v1.25a1.25,1.25,0,0,0,1.25,1.25H17.5a1.25,1.25,0,0,0,1.25-1.25V15h0A1.25,1.25,0,0,0,20,13.75v-5a2.5,2.5,0,0,0-1.507-2.292ZM5.305,2.5h9.39L15.82,6.25H4.18L5.305,2.5ZM5,11.875a1.25,1.25,0,1,1,1.25-1.25A1.25,1.25,0,0,1,5,11.875Zm10,0a1.25,1.25,0,1,1,1.25-1.25A1.25,1.25,0,0,1,15,11.875Z" transform="translate(2587 2150)" fill="#1272ba"/>
  </g>
</svg>
